<?xml version="1.0" encoding="utf-8"?>
<!-- Generator: Adobe Illustrator 19.0.0, SVG Export Plug-In . SVG Version: 6.00 Build 0)  -->
<svg version="1.1" id="Layer_1" xmlns="http://www.w3.org/2000/svg" xmlns:xlink="http://www.w3.org/1999/xlink" x="0px" y="0px"
	 viewBox="-277 368.5 57 57" style="enable-background:new -277 368.5 57 57;" xml:space="preserve">
<style type="text/css">
	.st0{fill:#4C4C4C;}
	.st1{fill:#D54E50;}
</style>
<g>
	<path class="st0" d="M-220,409.6c0,8.8-7.4,15.9-16.5,15.9c-6.3,0-11.7-3.4-14.5-8.4h-22.8c-1.8,0-3.3-1.4-3.3-3.2v-26.2
		c0-1.8,1.5-3.2,3.3-3.2h1.6v-14.8c0-0.6,0.5-1.2,1.2-1.2h30.8c0.6,0,1.2,0.5,1.2,1.2v19.5h1.6c1.8,0,3.3,1.4,3.3,3.2v1.6
		C-226.2,395-220,401.6-220,409.6z M-241.4,370.8h-28.4v13.7h9.9c1.8,0,3.3,1.4,3.3,3.2v0.6c0,0.5,0.4,0.9,0.9,0.9h14.4V370.8z
		 M-237.5,391.5h-18.3c-1.8,0-3.3-1.4-3.3-3.2v-0.6c0-0.5-0.4-0.9-0.9-0.9h-13.8c-0.5,0-0.9,0.4-0.9,0.9v26.2c0,0.5,0.4,0.9,0.9,0.9
		h21.7c-0.6-1.6-0.9-3.3-0.9-5.1c0-8.7,7.3-15.8,16.4-15.9v-1.4C-236.6,391.9-237,391.5-237.5,391.5z M-236.5,396.1
		c-7.8,0-14.1,6.1-14.1,13.6c0,7.5,6.3,13.5,14.1,13.5c7.8,0,14.1-6.1,14.1-13.5C-222.3,402.2-228.7,396.1-236.5,396.1z"/>
	<path class="st1" d="M-236.1,403.2c-2.1,0-2.9,1.2-2.9,2.2c0,1.4,1,2,3.4,3c2.8,1.1,4.2,2.5,4.2,4.8c0,2.1-1.5,4-4.3,4.4v2.7h-1.7
		v-2.6c-1.6,0-3.2-0.5-4.1-1.1l0.7-1.7c1,0.6,2.4,1.1,3.9,1.1c1.9,0,3.2-1.1,3.2-2.6c0-1.4-1.1-2.3-3.1-3.1c-2.8-1-4.5-2.2-4.5-4.5
		c0-2.2,1.6-3.8,4.1-4.2v-2.6h1.7v2.5c1.6,0.1,2.7,0.5,3.5,0.9l-0.7,1.7C-233.2,403.8-234.3,403.2-236.1,403.2z M-246.3,382.9H-265
		c-0.6,0-1.2-0.5-1.2-1.2s0.5-1.2,1.2-1.2h18.7c0.6,0,1.2,0.5,1.2,1.2S-245.6,382.9-246.3,382.9z M-246.3,377H-265
		c-0.6,0-1.2-0.5-1.2-1.2c0-0.6,0.5-1.2,1.2-1.2h18.7c0.6,0,1.2,0.5,1.2,1.2C-245.1,376.5-245.6,377-246.3,377z"/>
</g>
</svg>
