<?xml version="1.0" encoding="utf-8"?>
<!-- Generator: Adobe Illustrator 19.0.0, SVG Export Plug-In . SVG Version: 6.00 Build 0)  -->
<svg version="1.1" id="Layer_1" xmlns="http://www.w3.org/2000/svg" xmlns:xlink="http://www.w3.org/1999/xlink" x="0px" y="0px"
	 viewBox="-277 368.5 57 57" style="enable-background:new -277 368.5 57 57;" xml:space="preserve">
<style type="text/css">
	.st0{opacity:0.702;enable-background:new    ;}
	.st1{opacity:0.702;fill:#C50508;enable-background:new    ;}
</style>
<g id="Group-1">
	<path id="Shape-12" class="st0" d="M-221.2,409.9c-1.1,1.2-2.6,1.1-3.1,1.1c-0.8,0.1-4.9,0.5-8.9,0.6c-1.5,0.1-3.2,0.1-4.7,0.1
		c-3.1,0-5.7-0.1-5.7-0.1c0,0-0.1,0-0.1,0l-2.4-0.3c-0.6,2.3-2.1,3.9-3.9,3.9c-2.1,0-3.8-2.1-4.1-5l-12.3-1.8
		c-0.6,1.6-1.8,2.6-3.1,2.6c-1.6,0-3-1.5-3.4-3.6l-3-0.4c-0.6-0.1-1-0.6-1-1.2V388c0-3.7,1.5-4.2,2.1-4.3c1.2-0.2,20.9-3.4,27.4-4.1
		c0.9-0.1,1.7-0.2,2.4-0.3c4.4-0.5,5.3-0.7,11.8,0.3c7.4,1.1,8.2,4.2,8.3,5.1c0.4,1.5,3.7,14.3,4.8,19.8
		C-219.7,407-220.1,408.8-221.2,409.9z M-250.1,412.8c0.7,0,1.7-1.4,1.7-3.6c0-2.2-1-3.6-1.7-3.6c-0.7,0-1.7,1.4-1.7,3.6
		C-251.8,411.4-250.8,412.8-250.1,412.8z M-269.5,408.6c0.4,0,1.2-1,1.2-2.7c0-1.7-0.8-2.7-1.2-2.7c-0.4,0-1.2,1-1.2,2.7
		C-270.7,407.6-270,408.6-269.5,408.6z M-227.3,385.2c0-0.1,0-0.2,0-0.4c0,0-0.3-2.1-6.3-2.9c-3.1-0.4-4.8-0.7-6.3-0.7
		c0.5,3.9,2.1,13.3,2.1,13.4c0,0.1,0,0.1,0,0.2c0,0.1,0.1,2.7,1.9,2.9l0.3,0c2.8,0.3,7.9,0.9,11.2-0.5
		C-225.7,391.5-227.3,385.3-227.3,385.2z M-222.5,405c-0.3-1.4-0.7-3.3-1.2-5.3c-1.9,0.7-4.1,0.9-6.2,0.9c-2.2,0-4.3-0.2-5.8-0.4
		l-0.3,0c-3.1-0.3-4-3.4-4.1-5.1c-0.2-1-1.7-10-2.1-13.7c-0.7,0.1-1.5,0.2-2.5,0.3c-0.7,0.1-1.5,0.2-2.5,0.3
		c-6.2,0.7-25,3.8-27.1,4.1c-0.1,0.2-0.3,0.7-0.3,1.9v16.8l1.6,0.2c0.3-2.4,1.7-4.1,3.5-4.1c2,0,3.6,2.2,3.6,5.1c0,0,0,0.1,0,0.1
		l11.9,1.7c0.4-2.6,2-4.5,4-4.5c2.2,0,4,2.5,4.1,5.7l2.4,0.3c0.7,0,6.1,0.1,10.2,0c4.4-0.2,8.8-0.6,8.9-0.6c0.1,0,0.2,0,0.3,0
		c0,0,0.8,0.1,1.2-0.4C-222.4,407.7-222.2,406.5-222.5,405z"/>
	<path id="Shape-12-copy-3" class="st1" d="M-223.1,404.9l-1.9,0.7c-0.1,0-0.3,0.1-0.4,0.1c-0.5,0-0.9-0.3-1.1-0.8
		c-0.2-0.6,0.1-1.3,0.7-1.5l1.9-0.7c0.6-0.2,1.3,0.1,1.5,0.7C-222.2,404-222.5,404.6-223.1,404.9z M-233.1,406.8h-3.7
		c-0.7,0-1.2-0.5-1.2-1.2c0-0.7,0.5-1.2,1.2-1.2h3.7c0.7,0,1.2,0.5,1.2,1.2C-231.9,406.2-232.4,406.8-233.1,406.8z"/>
	<path id="Shape-12-copy-2" class="st1" d="M-246.1,395.5C-246.1,395.5-246.1,395.5-246.1,395.5h-25.3c-0.7,0-1.2-0.5-1.2-1.2v-4.9
		c0-0.6,0.5-1.1,1.1-1.2l24.6-2.5c0.3,0,0.6,0.1,0.9,0.3c0.2,0.2,0.4,0.5,0.4,0.8l0.7,7.2c0,0.1,0.1,0.2,0.1,0.3
		C-244.9,395-245.4,395.5-246.1,395.5z M-270.2,393.1h22.8l-0.5-4.9l-22.3,2.2V393.1z"/>
</g>
</svg>
