<?xml version="1.0" encoding="utf-8"?>
<!-- Generator: Adobe Illustrator 19.0.0, SVG Export Plug-In . SVG Version: 6.00 Build 0)  -->
<svg version="1.1" id="Layer_1" xmlns="http://www.w3.org/2000/svg" xmlns:xlink="http://www.w3.org/1999/xlink" x="0px" y="0px"
	 viewBox="-277 368.5 57 57" style="enable-background:new -277 368.5 57 57;" xml:space="preserve">
<style type="text/css">
	.st0{opacity:0.702;enable-background:new    ;}
	.st1{opacity:0.702;fill:#C50508;enable-background:new    ;}
</style>
<g id="Group-2">
	<path id="Shape-13" class="st0" d="M-248.5,425c-15.7,0-28.5-12.5-28.5-28s12.8-28,28.5-28c15.7,0,28.5,12.5,28.5,28
		S-232.8,425-248.5,425z M-248.5,371.5c-14.3,0-26,11.5-26,25.6c0,14.1,11.7,25.6,26,25.6c14.4,0,26-11.5,26-25.6
		C-222.5,382.9-234.1,371.5-248.5,371.5z M-229.4,398.2v-2.4h5.5v2.4H-229.4z M-249.7,415.8h2.5v5.4h-2.5V415.8z M-249.7,372.8h2.5
		v5.4h-2.5V372.8z M-273.1,395.8h5.5v2.4h-5.5V395.8z"/>
	<path id="Shape-13-copy" class="st1" d="M-235.2,398.9l-15-0.7l7.4-20.3l2.3,0.8l-6.3,17.2l11.7,0.6L-235.2,398.9z"/>
</g>
</svg>
